<?xml version="1.0" encoding="utf-8"?>
<!-- Generator: Adobe Illustrator 21.0.0, SVG Export Plug-In . SVG Version: 6.00 Build 0)  -->
<!DOCTYPE svg PUBLIC "-//W3C//DTD SVG 1.1//EN" "http://www.w3.org/Graphics/SVG/1.1/DTD/svg11.dtd" [
	<!ENTITY ns_extend "http://ns.adobe.com/Extensibility/1.0/">
	<!ENTITY ns_ai "http://ns.adobe.com/AdobeIllustrator/10.0/">
	<!ENTITY ns_graphs "http://ns.adobe.com/Graphs/1.0/">
	<!ENTITY ns_vars "http://ns.adobe.com/Variables/1.0/">
	<!ENTITY ns_imrep "http://ns.adobe.com/ImageReplacement/1.0/">
	<!ENTITY ns_sfw "http://ns.adobe.com/SaveForWeb/1.0/">
	<!ENTITY ns_custom "http://ns.adobe.com/GenericCustomNamespace/1.0/">
	<!ENTITY ns_adobe_xpath "http://ns.adobe.com/XPath/1.0/">
	<!ENTITY st0 "fill-rule:evenodd;clip-rule:evenodd;fill:#374181;">
	<!ENTITY st1 "fill:#364280;">
	<!ENTITY st2 "fill-rule:evenodd;clip-rule:evenodd;fill:#E7353A;">
	<!ENTITY st3 "fill-rule:evenodd;clip-rule:evenodd;fill:#1197D5;">
	<!ENTITY st4 "fill-rule:evenodd;clip-rule:evenodd;fill:#FECB2A;">
	<!ENTITY st5 "fill-rule:evenodd;clip-rule:evenodd;fill:#0EA75A;">
	<!ENTITY st6 "opacity:0.9;fill-rule:evenodd;clip-rule:evenodd;fill:#FFFFFF;">
	<!ENTITY st7 "opacity:0.9;fill:#FFFFFF;">
	<!ENTITY st8 "opacity:0.5;fill-rule:evenodd;clip-rule:evenodd;fill:#FFFFFF;">
	<!ENTITY st9 "opacity:0.7;fill-rule:evenodd;clip-rule:evenodd;fill:#FFFFFF;">
	<!ENTITY st10 "opacity:0.15;fill-rule:evenodd;clip-rule:evenodd;fill:#FFFFFF;">
	<!ENTITY st11 "opacity:0.6;fill-rule:evenodd;clip-rule:evenodd;fill:#FFFFFF;">
]>
<svg version="1.1" id="Capa_1" xmlns:x="&ns_extend;" xmlns:i="&ns_ai;" xmlns:graph="&ns_graphs;"
	 xmlns="http://www.w3.org/2000/svg" xmlns:xlink="http://www.w3.org/1999/xlink" x="0px" y="0px" width="133px" height="34.5px"
	 viewBox="0 0 133 34.5" style="enable-background:new 0 0 133 34.5;" xml:space="preserve">
<metadata>
	<sfw  xmlns="&ns_sfw;">
		<slices></slices>
		<sliceSourceBounds  bottomLeftOrigin="true" height="167.9" width="419.6" x="801.5" y="302.2"></sliceSourceBounds>
		<optimizationSettings>
			<targetSettings  fileFormat="PNG24Format" targetSettingsID="0">
				<PNG24Format  filtered="false" interlaced="false" matteColor="#FFFFFF" noMatteColor="false" transparency="true">
					</PNG24Format>
			</targetSettings>
		</optimizationSettings>
	</sfw>
</metadata>
<g>
	<path style="&st0;" d="M66.2,82.7v0.2c0,1.9,0,3.9,0,5.8c0,0.2-0.1,0.4-0.3,0.4c-0.2,0.1-0.4,0-0.5-0.1c-0.1-0.1-0.1-0.2-0.1-0.3
		c0-1.7,0-3.4,0-5.1c0-0.7,0-1.3,0-2c0-0.3,0.1-0.4,0.3-0.5c0.2-0.1,0.4,0,0.5,0.1c0.7,0.7,1.3,1.5,1.9,2.2c1.1,1.3,2.3,2.6,3.4,3.9
		c0,0,0.1,0.1,0.1,0.1c0.1-0.1,0-0.1,0-0.2c0-1.9,0-3.8,0-5.8c0-0.4,0.3-0.6,0.7-0.4c0.2,0.1,0.3,0.2,0.3,0.4c0,0.7,0,1.4,0,2.1v5
		c0,0.3-0.1,0.4-0.3,0.5c-0.2,0.1-0.4,0-0.6-0.2c-1.6-1.8-3.2-3.6-4.8-5.5C66.7,83.2,66.4,83,66.2,82.7"/>
	<path style="&st0;" d="M78.9,81.1c0.9,0,1.9,0.3,2.7,0.8c0.2,0.2,0.3,0.4,0.2,0.6c-0.1,0.2-0.5,0.3-0.7,0.1
		c-0.3-0.2-0.6-0.4-0.9-0.5c-1.5-0.5-2.8-0.3-4,0.8c-1.4,1.3-1.4,3.3,0.1,4.5c1.3,1.1,3.3,1.2,4.7,0.3c0.2-0.1,0.3-0.2,0.5-0.1
		c0.3,0.1,0.3,0.5,0.1,0.7c-0.6,0.5-1.3,0.7-2.1,0.8c-1,0.1-2,0-3-0.5c-1-0.5-1.8-1.3-2.1-2.4c-0.4-1.5-0.1-2.7,1-3.8
		C76.4,81.5,77.5,81.1,78.9,81.1"/>
	<path style="&st0;" d="M62.1,85.1c0-1.2,0-2.4,0-3.6c0-0.4,0.3-0.6,0.7-0.4c0.1,0.1,0.2,0.2,0.3,0.3c0,0,0,0.1,0,0.1
		c0,2.4,0,4.7,0,7.1c0,0.2-0.1,0.4-0.3,0.5c-0.2,0.1-0.4,0-0.5-0.1c-0.1-0.1-0.1-0.2-0.1-0.3C62.1,87.5,62.1,86.3,62.1,85.1"/>
	<path style="&st0;" d="M84.9,85.1c0,1.2,0,2.4,0,3.6c0,0.2-0.1,0.4-0.3,0.4c-0.2,0.1-0.4,0-0.5-0.1C84,88.9,84,88.8,84,88.7
		c0-2.4,0-4.8,0-7.1c0-0.3,0.2-0.5,0.5-0.5c0.3,0,0.5,0.2,0.5,0.5C84.9,82.8,84.9,83.9,84.9,85.1"/>
	<path style="&st1;" d="M36.5,81.7c-1-1.3-2.4-2-4.1-2c-0.8,0-1.5,0-2.3,0c-0.4,0-0.6,0.2-0.6,0.6c0,1.4,0,2.8,0,4.1
		c0,1.4,0,2.8,0,4.2c0,0.3,0.2,0.6,0.6,0.6c0.7,0,1.4,0,2.2,0c1.5,0,2.7-0.5,3.8-1.5C37.8,86,38,83.5,36.5,81.7z M35.2,87.1
		c-0.9,0.8-1.9,1.1-3,1.1c-0.4,0-0.9,0-1.3,0c-0.1,0-0.2,0-0.2-0.2c0-1.2,0-2.4,0-3.6c0-1.2,0-2.4,0-3.6c0-0.1,0-0.2,0.2-0.2
		c0.6,0,1.3,0,1.9,0c1.6,0.1,3.1,1.3,3.5,2.7C36.7,84.8,36.3,86.1,35.2,87.1z"/>
	<path style="&st1;" d="M47.6,88.7c0,0.1,0,0.2-0.1,0.3c-0.1,0.1-0.2,0.1-0.3,0.1c-0.2,0-0.3-0.1-0.4-0.2l-1.1-1.7h-5.8l-1.1,1.7
		c-0.1,0.2-0.2,0.2-0.4,0.2c-0.1,0-0.2,0-0.3-0.1c-0.1-0.1-0.1-0.2-0.1-0.3c0-0.1,0-0.1,0-0.2l4.2-7.2c0.1-0.2,0.3-0.3,0.5-0.3
		c0.2,0,0.5,0.2,0.6,0.4l4.1,7.1C47.5,88.6,47.6,88.7,47.6,88.7 M40.2,86.5h5.2l-2.6-4.4L40.2,86.5z"/>
	<path style="&st1;" d="M60.5,79.8c0.1,0.1,0.1,0.2,0.1,0.3c0,0.1,0,0.2-0.1,0.3l-4.8,8.5c-0.1,0.2-0.2,0.3-0.4,0.3
		c-0.1,0-0.2,0-0.3-0.1c-0.1,0-0.1-0.1-0.2-0.2l-4.9-8.4c0-0.1-0.1-0.2-0.1-0.3c0-0.1,0-0.2,0.1-0.3c0.1-0.1,0.2-0.1,0.3-0.1
		c0.2,0,0.4,0.1,0.4,0.3l4.5,7.7l4.4-7.7c0-0.1,0.1-0.2,0.2-0.3c0.1,0,0.2-0.1,0.3-0.1C60.3,79.6,60.4,79.7,60.5,79.8"/>
	<path style="&st2;" d="M95.2,83.6c0-0.4,0-0.7,0-1.1c0-0.1,0-0.2,0.1-0.3c2-3.1,4-6.1,6.1-9.2c0.1-0.2,0.3-0.3,0.5-0.4
		c0.4-0.1,0.8-0.1,1.2,0.1c0.3,0.2,0.4,0.4,0.2,0.7c-2.4,3.6-4.8,7.2-7.2,10.8c-0.2,0.3-0.5,0.4-0.8,0.4c-0.1,0-0.1,0-0.1-0.1
		C95.2,84.3,95.2,83.9,95.2,83.6"/>
	<path style="&st3;" d="M95,83.6c0,0.4,0,0.7,0,1.1c0,0.1,0,0.2-0.2,0.1c-0.3-0.1-0.6-0.2-0.7-0.5c-2.4-3.6-4.8-7.2-7.1-10.8
		c-0.2-0.3-0.2-0.6,0.2-0.8c0.5-0.3,0.9-0.2,1.4-0.1c0.1,0.1,0.2,0.2,0.3,0.3c2,3.1,4.1,6.2,6.1,9.2c0,0.1,0.1,0.1,0.1,0.2
		C95,82.8,95,83.2,95,83.6"/>
	<path style="&st4;" d="M95,86.3c0,0.4,0,0.7,0,1.1c0,0.1,0,0.2-0.1,0.2c-2,3.1-4,6.1-6.1,9.2c-0.3,0.4-0.7,0.4-1.1,0.4
		c-0.2,0-0.5-0.1-0.7-0.2c-0.3-0.2-0.4-0.5-0.2-0.8c0.8-1.2,1.6-2.5,2.5-3.7c1.6-2.4,3.1-4.7,4.7-7.1c0.2-0.3,0.4-0.4,0.7-0.4
		c0.1,0,0.1,0,0.1,0.1C95,85.6,95,86,95,86.3"/>
	<path style="&st5;" d="M95.2,86.4c0-0.4,0-0.8,0-1.1c0-0.1,0-0.1,0.1-0.1c0.3,0.1,0.6,0.2,0.8,0.5c2.4,3.6,4.7,7.2,7.1,10.8
		c0.2,0.3,0.2,0.6-0.2,0.8c-0.4,0.2-0.9,0.2-1.4,0c-0.1-0.1-0.2-0.2-0.3-0.3c-2-3.1-4.1-6.2-6.1-9.2c0-0.1-0.1-0.1-0.1-0.2
		C95.2,87.1,95.2,86.7,95.2,86.4"/>
	<path style="&st0;" d="M96.1,78.6c0,0.5-0.4,0.9-0.9,0.9c-0.5,0-0.9-0.4-0.9-0.9c0-0.5,0.4-0.9,0.9-0.9
		C95.6,77.7,96.1,78.1,96.1,78.6"/>
</g>
<g>
	<path style="&st0;" d="M71,12.6v0.4c0,3.7,0,7.4,0,11.1c0,0.5-0.2,0.7-0.5,0.8c-0.4,0.1-0.7,0.1-1-0.2c-0.2-0.2-0.2-0.4-0.2-0.6
		c0-3.2,0-6.5,0-9.7c0-1.3,0-2.5,0-3.8c0-0.5,0.2-0.8,0.5-0.9c0.4-0.1,0.8,0,1,0.3c1.2,1.4,2.5,2.8,3.7,4.3c2.2,2.5,4.3,5,6.5,7.5
		c0.1,0.1,0.1,0.2,0.2,0.3c0.1-0.1,0.1-0.2,0.1-0.4c0-3.7,0-7.4,0-11c0-0.7,0.7-1.1,1.3-0.9c0.4,0.1,0.5,0.4,0.5,0.8
		c0,1.3,0,2.7,0,4V24c0,0.6-0.1,0.8-0.5,1c-0.4,0.2-0.8,0-1.1-0.4c-3-3.5-6.1-7-9.1-10.4C71.9,13.7,71.5,13.2,71,12.6"/>
	<path style="&st0;" d="M95.3,9.6c1.8,0,3.6,0.5,5.2,1.6c0.5,0.3,0.6,0.7,0.3,1.1c-0.3,0.4-0.9,0.5-1.3,0.2
		c-0.5-0.4-1.1-0.7-1.7-0.9c-2.8-0.9-5.4-0.6-7.7,1.4c-2.7,2.4-2.6,6.3,0.2,8.7c2.5,2.2,6.3,2.4,9,0.5c0.3-0.2,0.7-0.3,1-0.1
		c0.6,0.2,0.6,0.9,0.1,1.3c-1.2,0.9-2.6,1.4-4.1,1.6c-2,0.2-3.9,0-5.7-1c-1.9-1-3.4-2.5-4-4.6c-0.8-2.8-0.1-5.3,1.9-7.3
		C90.5,10.4,92.7,9.6,95.3,9.6"/>
	<path style="&st0;" d="M63.2,17.3c0-2.3,0-4.5,0-6.8c0-0.7,0.6-1.1,1.2-0.8c0.3,0.1,0.4,0.3,0.5,0.6c0,0.1,0,0.2,0,0.2
		c0,4.5,0,9.1,0,13.6c0,0.5-0.2,0.7-0.5,0.9c-0.4,0.1-0.7,0-1-0.3c-0.2-0.2-0.2-0.4-0.2-0.6C63.2,21.8,63.2,19.6,63.2,17.3"/>
	<path style="&st0;" d="M106.8,17.3c0,2.3,0,4.5,0,6.8c0,0.5-0.2,0.7-0.5,0.9c-0.4,0.1-0.7,0-1-0.3c-0.1-0.2-0.2-0.4-0.2-0.6
		c0-4.6,0-9.1,0-13.7c0-0.5,0.3-0.9,0.9-0.9c0.5,0,0.9,0.3,0.9,0.9C106.8,12.8,106.8,15,106.8,17.3"/>
	<path style="&st1;" d="M14.3,10.7c-2-2.5-4.6-3.7-7.8-3.8c-1.5,0-2.9,0-4.4,0C1.4,6.9,1.1,7.2,1.1,8c0,2.6,0,5.3,0,7.9
		c0,2.7,0,5.3,0,8c0,0.7,0.4,1.1,1.1,1.1c1.4,0,2.8,0,4.1,0c2.8,0,5.2-1,7.2-2.9C16.6,18.9,17,14.1,14.3,10.7z M11.6,21.1
		c-1.6,1.4-3.6,2.1-5.7,2.1c-0.9,0-1.7,0-2.6,0c-0.2,0-0.3-0.1-0.3-0.3c0-2.3,0-4.6,0-6.9c0-2.3,0-4.6,0-6.9c0-0.2,0-0.3,0.3-0.3
		c1.2,0,2.5,0,3.7,0.1c3,0.2,5.9,2.4,6.7,5.1C14.6,16.7,13.9,19.1,11.6,21.1z"/>
	<path style="&st1;" d="M35.4,24.2c0,0.2-0.1,0.4-0.2,0.5c-0.2,0.2-0.3,0.2-0.5,0.2c-0.3,0-0.6-0.2-0.7-0.5l-2.1-3.2h-11l-2.1,3.2
		c-0.1,0.3-0.3,0.5-0.7,0.5c-0.2,0-0.4-0.1-0.5-0.2c-0.1-0.2-0.2-0.3-0.2-0.5c0-0.1,0-0.2,0.1-0.3l8-13.8c0.1-0.4,0.6-0.6,1-0.6
		c0.4,0,1,0.4,1.2,0.8l7.9,13.6C35.3,23.9,35.4,24,35.4,24.2 M21.3,19.9h9.9l-5-8.4L21.3,19.9z"/>
	<path style="&st1;" d="M60,7c0.1,0.2,0.2,0.3,0.2,0.6c0,0.2,0,0.3-0.1,0.5l-9.2,16.2c-0.2,0.4-0.4,0.6-0.8,0.6
		c-0.2,0-0.4,0-0.5-0.1c-0.1-0.1-0.2-0.2-0.3-0.5L39.9,8.2c-0.1-0.2-0.1-0.4-0.1-0.6c0-0.2,0.1-0.4,0.2-0.6c0.2-0.1,0.4-0.2,0.6-0.2
		c0.4,0,0.7,0.2,0.8,0.6l8.7,14.7l8.4-14.7C58.6,7.2,58.8,7,58.9,7c0.1-0.1,0.3-0.1,0.6-0.1C59.7,6.8,59.9,6.9,60,7"/>
	<g>
		<path style="&st2;" d="M121.3,15.5c0-0.5,0-0.9,0-1.4c0-0.1,0-0.2,0.1-0.3c2.6-4,5.2-8,7.9-11.9c0.2-0.2,0.4-0.4,0.7-0.5
			c0.6-0.1,1.1-0.1,1.6,0.2c0.4,0.2,0.5,0.6,0.2,1c-3.1,4.7-6.2,9.4-9.3,14.1c-0.2,0.4-0.6,0.5-1,0.5c-0.1,0-0.1-0.1-0.1-0.2
			C121.3,16.5,121.3,16,121.3,15.5"/>
		<path style="&st3;" d="M121.2,15.5c0,0.5,0,1,0,1.4c0,0.2-0.1,0.2-0.2,0.2c-0.4-0.1-0.7-0.2-1-0.6c-3.1-4.7-6.2-9.3-9.3-14
			c-0.3-0.4-0.2-0.7,0.2-1c0.6-0.3,1.2-0.3,1.8-0.1c0.2,0.1,0.3,0.2,0.4,0.4c2.6,4,5.3,8,7.9,12c0.1,0.1,0.1,0.2,0.1,0.3
			C121.1,14.6,121.2,15.1,121.2,15.5"/>
		<path style="&st4;" d="M121.2,19.1c0,0.5,0,0.9,0,1.4c0,0.1,0,0.2-0.1,0.3c-2.6,4-5.2,7.9-7.8,11.9c-0.3,0.5-0.9,0.6-1.4,0.6
			c-0.3,0-0.6-0.1-0.9-0.2c-0.4-0.3-0.5-0.6-0.2-1c1.1-1.6,2.1-3.2,3.2-4.8c2-3.1,4.1-6.1,6.1-9.2c0.2-0.4,0.6-0.5,1-0.6
			c0.1,0,0.2,0,0.2,0.2C121.1,18.2,121.2,18.6,121.2,19.1"/>
		<path style="&st5;" d="M121.4,19.1c0-0.5,0-1,0-1.5c0-0.1,0-0.2,0.2-0.1c0.4,0.1,0.8,0.2,1,0.6c3.1,4.7,6.1,9.3,9.2,13.9
			c0.3,0.4,0.2,0.8-0.3,1c-0.6,0.3-1.2,0.3-1.8,0.1c-0.2-0.1-0.3-0.2-0.4-0.4c-2.6-4-5.3-8-7.9-12c-0.1-0.1-0.1-0.2-0.1-0.3
			C121.4,20.1,121.4,19.6,121.4,19.1"/>
		<path style="&st0;" d="M122.5,9.1c0,0.7-0.5,1.2-1.2,1.2c-0.7,0-1.2-0.5-1.2-1.2c0-0.6,0.5-1.2,1.2-1.2
			C121.9,7.9,122.5,8.5,122.5,9.1"/>
	</g>
</g>
<g>
	<path style="&st2;" d="M154.8,84c0-0.2,0-0.5,0-0.7c0-0.1,0-0.1,0-0.2c1.3-2,2.6-4,3.9-6c0.1-0.1,0.2-0.2,0.3-0.2
		c0.3-0.1,0.5-0.1,0.8,0.1c0.2,0.1,0.2,0.3,0.1,0.5c-1.5,2.3-3.1,4.7-4.6,7c-0.1,0.2-0.3,0.2-0.5,0.3c-0.1,0-0.1,0-0.1-0.1
		C154.8,84.5,154.8,84.3,154.8,84"/>
	<path style="&st3;" d="M154.8,84.1c0,0.2,0,0.5,0,0.7c0,0.1,0,0.1-0.1,0.1c-0.2,0-0.4-0.1-0.5-0.3c-1.5-2.3-3.1-4.7-4.6-7
		c-0.1-0.2-0.1-0.4,0.1-0.5c0.3-0.2,0.6-0.2,0.9,0c0.1,0,0.2,0.1,0.2,0.2c1.3,2,2.6,4,3.9,6c0,0,0,0.1,0,0.1
		C154.8,83.6,154.8,83.8,154.8,84.1"/>
	<path style="&st4;" d="M154.8,85.9c0,0.2,0,0.5,0,0.7c0,0.1,0,0.1,0,0.2c-1.3,2-2.6,4-3.9,5.9c-0.2,0.3-0.4,0.3-0.7,0.3
		c-0.1,0-0.3,0-0.4-0.1c-0.2-0.1-0.3-0.3-0.1-0.5c0.5-0.8,1.1-1.6,1.6-2.4c1-1.5,2-3.1,3-4.6c0.1-0.2,0.3-0.2,0.5-0.3
		c0.1,0,0.1,0,0.1,0.1C154.8,85.4,154.8,85.6,154.8,85.9"/>
	<path style="&st5;" d="M154.9,85.9c0-0.2,0-0.5,0-0.7c0-0.1,0-0.1,0.1-0.1c0.2,0,0.4,0.1,0.5,0.3c1.5,2.3,3.1,4.6,4.6,7
		c0.1,0.2,0.1,0.4-0.1,0.5c-0.3,0.2-0.6,0.1-0.9,0c-0.1,0-0.2-0.1-0.2-0.2c-1.3-2-2.6-4-3.9-6c0,0,0-0.1,0-0.1
		C154.9,86.3,154.9,86.1,154.9,85.9"/>
	<path style="&st0;" d="M155.4,80.9c0,0.3-0.3,0.6-0.6,0.6c-0.3,0-0.6-0.3-0.6-0.6c0-0.3,0.3-0.6,0.6-0.6
		C155.1,80.3,155.4,80.5,155.4,80.9"/>
</g>
<g>
	<path style="&st6;" d="M-165,10.2v0.6c0,5,0,10,0,15c0,0.6-0.2,0.9-0.7,1.1c-0.5,0.2-1,0.1-1.4-0.3c-0.2-0.2-0.3-0.5-0.3-0.8
		c0-4.4,0-8.8,0-13.1c0-1.7,0-3.4,0-5.2c0-0.7,0.2-1,0.7-1.2c0.5-0.2,1-0.1,1.4,0.4c1.7,1.9,3.4,3.8,5,5.8c2.9,3.4,5.9,6.7,8.8,10.1
		c0.1,0.1,0.2,0.2,0.3,0.4c0.1-0.2,0.1-0.3,0.1-0.5c0-5,0-9.9,0-14.9c0-1,0.9-1.5,1.7-1.2c0.5,0.2,0.7,0.6,0.7,1.1
		c0,1.8,0,3.6,0,5.4v12.9c0,0.8-0.2,1.1-0.7,1.3c-0.5,0.2-1,0.1-1.5-0.5c-4.1-4.7-8.2-9.4-12.3-14.1C-163.7,11.7-164.3,11-165,10.2"
		/>
	<path style="&st6;" d="M-132.1,6.1c2.4,0,4.8,0.7,7,2.2c0.6,0.4,0.8,1,0.5,1.5c-0.4,0.5-1.2,0.7-1.8,0.3c-0.7-0.5-1.4-0.9-2.2-1.2
		c-3.8-1.2-7.3-0.8-10.4,2c-3.6,3.3-3.5,8.5,0.2,11.7c3.4,2.9,8.5,3.2,12.2,0.7c0.5-0.3,0.9-0.4,1.4-0.2c0.8,0.3,0.9,1.2,0.2,1.7
		c-1.6,1.2-3.5,1.9-5.5,2.1c-2.7,0.3-5.3,0-7.6-1.3c-2.5-1.4-4.6-3.3-5.4-6.2c-1.1-3.8-0.2-7.1,2.6-9.9
		C-138.5,7.2-135.6,6.1-132.1,6.1"/>
	<path style="&st6;" d="M-175.5,16.6c0-3.1,0-6.1,0-9.2c0-0.9,0.8-1.5,1.7-1.1c0.4,0.2,0.6,0.4,0.6,0.8c0,0.1,0,0.2,0,0.3
		c0,6.1,0,12.2,0,18.4c0,0.6-0.2,1-0.7,1.2c-0.5,0.2-1,0.1-1.4-0.4c-0.2-0.2-0.2-0.5-0.2-0.8C-175.5,22.7-175.5,19.6-175.5,16.6"/>
	<path style="&st6;" d="M-116.6,16.5c0,3.1,0,6.1,0,9.2c0,0.6-0.2,1-0.7,1.2c-0.5,0.2-1,0.1-1.4-0.3c-0.2-0.2-0.3-0.5-0.3-0.8
		c0-6.2,0-12.3,0-18.5c0-0.7,0.5-1.2,1.2-1.2c0.7,0,1.2,0.4,1.2,1.2C-116.6,10.4-116.6,13.5-116.6,16.5"/>
	<path style="&st7;" d="M-241.5,7.6c-2.7-3.4-6.2-5.1-10.5-5.2c-2-0.1-3.9,0-5.9,0c-1,0-1.5,0.5-1.5,1.5c0,3.6,0,7.1,0,10.7
		c0,3.6,0,7.2,0,10.8c0,0.9,0.5,1.4,1.4,1.4c1.9,0,3.7,0,5.6,0c3.8,0,7-1.3,9.8-4C-238.4,18.7-237.9,12.2-241.5,7.6z M-245.1,21.6
		c-2.2,2-4.8,2.8-7.7,2.8c-1.2,0-2.3,0-3.5,0c-0.3,0-0.4-0.1-0.4-0.4c0-3.1,0-6.3,0-9.4c0-3.1,0-6.2,0-9.3c0-0.3,0.1-0.4,0.4-0.4
		c1.7,0,3.3,0,5,0.1c4,0.3,8,3.3,9.1,7C-241.1,15.7-242.1,19-245.1,21.6z"/>
	<path style="&st7;" d="M-213,25.8c0,0.3-0.1,0.5-0.3,0.7c-0.2,0.2-0.5,0.3-0.7,0.3c-0.5,0-0.8-0.2-1-0.6l-2.8-4.4h-14.9l-2.8,4.4
		c-0.1,0.4-0.5,0.6-1,0.6c-0.3,0-0.6-0.1-0.7-0.3c-0.2-0.2-0.3-0.5-0.3-0.7c0-0.2,0-0.3,0.1-0.5l10.8-18.7c0.2-0.5,0.9-0.7,1.3-0.8
		c0.5-0.1,1.4,0.6,1.6,1.1l10.7,18.4C-213.1,25.5-213,25.6-213,25.8 M-232,20.1h13.4l-6.7-11.4L-232,20.1z"/>
	<path style="&st7;" d="M-179.7,2.7c0.2,0.2,0.3,0.5,0.3,0.8c0,0.2-0.1,0.4-0.2,0.7L-192,26.1c-0.2,0.5-0.6,0.8-1.1,0.8
		c-0.3,0-0.5-0.1-0.7-0.2c-0.2-0.1-0.3-0.3-0.5-0.6L-207,4.3c-0.1-0.3-0.2-0.6-0.2-0.8c0-0.3,0.1-0.6,0.3-0.8
		c0.2-0.2,0.5-0.3,0.9-0.3c0.5,0,0.9,0.3,1.1,0.8l11.8,19.9l11.4-19.8c0.1-0.3,0.3-0.5,0.5-0.7c0.2-0.1,0.4-0.2,0.8-0.2
		C-180.2,2.4-179.9,2.5-179.7,2.7"/>
	<path style="&st8;" d="M-188.3-42.2c0-0.9,0-1.8,0-2.8c0-0.2,0.1-0.5,0.2-0.7c5.2-7.9,10.5-15.9,15.7-23.8c0.3-0.5,0.8-0.8,1.3-1
		c1.1-0.3,2.2-0.3,3.2,0.3c0.8,0.5,1,1.1,0.4,1.9c-6.2,9.3-12.4,18.7-18.6,28c-0.5,0.7-1.2,1-2,1.1c-0.3,0-0.3-0.1-0.3-0.3
		C-188.3-40.3-188.3-41.2-188.3-42.2"/>
	<path style="&st9;" d="M-188.7-42.2c0,0.9,0,1.9,0,2.8c0,0.4-0.1,0.4-0.4,0.4c-0.8-0.2-1.4-0.5-1.9-1.2
		c-6.2-9.3-12.3-18.6-18.5-27.9c-0.5-0.8-0.4-1.5,0.5-2c1.2-0.7,2.4-0.6,3.6-0.1c0.4,0.1,0.6,0.4,0.8,0.7c5.2,8,10.5,15.9,15.7,23.9
		c0.1,0.2,0.2,0.4,0.2,0.6C-188.7-44-188.7-43.1-188.7-42.2"/>
	<path style="&st10;" d="M-188.7-35c0,0.9,0,1.9,0,2.8c0,0.2-0.1,0.4-0.2,0.6c-5.2,7.9-10.4,15.8-15.6,23.8c-0.7,1-1.7,1.1-2.8,1.1
		c-0.6,0-1.2-0.1-1.7-0.5c-0.9-0.5-1-1.2-0.5-2c2.1-3.2,4.2-6.4,6.4-9.6c4.1-6.1,8.1-12.2,12.2-18.4c0.5-0.7,1.1-1,1.9-1.1
		c0.3,0,0.4,0,0.4,0.3C-188.7-36.9-188.7-35.9-188.7-35"/>
	<path style="&st11;" d="M-188.2-34.9c0-1,0-2,0-2.9c0-0.3,0.1-0.3,0.3-0.3c0.8,0.2,1.5,0.5,2,1.3c6.1,9.3,12.3,18.5,18.4,27.8
		c0.6,0.9,0.4,1.6-0.5,2c-1.1,0.6-2.3,0.6-3.5,0.1c-0.4-0.1-0.6-0.4-0.9-0.7c-5.2-8-10.5-15.9-15.7-23.9c-0.1-0.2-0.2-0.4-0.2-0.6
		C-188.2-33.1-188.2-34-188.2-34.9"/>
	<path style="&st6;" d="M-186-54.9c0,1.3-1.1,2.4-2.4,2.4c-1.3,0-2.4-1.1-2.4-2.4c0-1.3,1-2.3,2.3-2.4
		C-187.1-57.3-186-56.2-186-54.9"/>
</g>
</svg>
